<svg width="28" height="28" viewBox="0 0 28 28" fill="none" xmlns="http://www.w3.org/2000/svg">
<path fill-rule="evenodd" clip-rule="evenodd" d="M2.11129 0.747782C1.31465 1.20323 1.57596 1.80356 2.87517 2.50265L3.80132 3.00099L3.80283 6.81853L3.8044 10.6361H4.58798H5.37155L5.38499 7.25782L5.39842 3.87952L7.73718 5.15179L10.0759 6.42406V10.0936V13.7631H10.8599H11.6438V10.5275C11.6438 8.62328 11.6633 7.29905 11.691 7.30931C11.717 7.31885 12.7749 7.88953 14.0418 8.57747L16.3453 9.82826L16.3464 13.3592L16.3475 16.8901H17.131H17.9145L17.928 13.7957L17.9415 10.7014L20.2672 11.9674L22.5929 13.2334L22.6063 16.6252L22.6198 20.0171H23.4033H24.1869V17.0725C24.1869 15.4529 24.1974 14.1279 24.2102 14.1279C24.2229 14.1279 24.4778 14.2569 24.7765 14.4145C25.6458 14.8733 26.2804 14.6593 26.2766 13.9085C26.2741 13.4174 26.3823 13.9612 14.7535 7.18376C2.32782 0.421879 2.55908 0.491785 2.11129 0.747782ZM1.07424 12.307C0.634813 12.5384 0.668627 11.9175 0.668627 19.7565C0.668627 27.6151 0.633036 26.9783 1.08537 27.2085C1.41092 27.3741 26.5804 27.3741 26.906 27.2085C27.3235 26.996 27.3227 27.0013 27.3227 24.447C27.3227 21.247 27.7239 21.5806 23.8754 21.5806H21.0511V20.3277C21.0511 18.293 21.3465 18.4536 17.6039 18.4536H14.7796V17.2007C14.7796 15.166 15.075 15.3266 11.3323 15.3266H8.50806V14.0737C8.50806 12.0194 8.88493 12.1989 4.57737 12.2019C1.3874 12.2041 1.2627 12.2079 1.07424 12.307Z" fill="#4DB663"/>
</svg>
