<svg width="32" height="32" viewBox="0 0 32 32" fill="none" xmlns="http://www.w3.org/2000/svg">
<path fill-rule="evenodd" clip-rule="evenodd" d="M10.3027 2.84636L10.0754 3.02663V6.07856V9.13042H16.0013H21.9272V6.07856V3.02663L21.6999 2.84636L21.4727 2.66602H16.0013H10.5299L10.3027 2.84636ZM6.25352 14.4025L3.03352 18.4965L9.51741 18.5153C13.0835 18.5257 18.9191 18.5257 22.4852 18.5153L28.9691 18.4965L25.7491 14.4025L22.5291 10.3086H16.0013H9.47352L6.25352 14.4025ZM2.66797 20.7035C2.66797 21.6621 2.6763 21.7052 2.89528 21.8789L3.12251 22.0592H16.0013H28.8801L29.1073 21.8789C29.3263 21.7052 29.3346 21.6621 29.3346 20.7035V19.7085H16.0013H2.66797V20.7035ZM6.80899 26.4484C4.07427 28.5968 3.98612 28.6992 4.51269 29.117C5.03565 29.5318 5.06389 29.5171 7.58778 27.5206C9.94436 25.6565 10.083 25.5114 9.84927 25.1528C9.42677 24.5045 9.11362 24.6379 6.80899 26.4484ZM14.2164 26.4484C11.4817 28.5968 11.3935 28.6992 11.9201 29.117C12.4431 29.5318 12.4713 29.5171 14.9952 27.5206C17.3518 25.6565 17.4904 25.5114 17.2567 25.1528C16.8342 24.5045 16.521 24.6379 14.2164 26.4484ZM21.6238 26.4484C18.8891 28.5968 18.8009 28.6992 19.3275 29.117C19.8505 29.5318 19.8787 29.5171 22.4026 27.5206C24.7592 25.6565 24.8978 25.5114 24.6641 25.1528C24.2416 24.5045 23.9284 24.6379 21.6238 26.4484Z" fill="#4DB663"/>
</svg>
