<svg width="32" height="28" viewBox="0 0 32 28" fill="none" xmlns="http://www.w3.org/2000/svg">
<path fill-rule="evenodd" clip-rule="evenodd" d="M7.21838 0.755838C5.7838 1.0875 4.60383 2.14168 4.08068 3.55914L3.90411 4.03747L3.88754 15.1702L3.87091 26.3028L2.08444 26.3212L0.297912 26.3396L0.147101 26.5073C-0.0499778 26.7266 -0.0489774 26.9893 0.14979 27.1793L0.303227 27.3261H3.02876H5.75429L5.90773 27.1793C6.2885 26.8153 6.00408 26.3753 5.35582 26.3255L4.93577 26.2933L4.93671 15.4045C4.93771 3.33905 4.91008 4.14414 5.35106 3.34162C6.44788 1.34568 9.245 1.06071 11.0146 2.76458C11.6874 3.41236 11.7979 3.45535 12.1213 3.19508C12.7967 2.65169 11.182 1.11781 9.5465 0.749022C9.04223 0.635359 7.72302 0.639186 7.21838 0.755838ZM11.8999 4.36405C10.393 4.58582 9.1646 5.64155 8.78544 7.04078C8.60869 7.69304 8.64695 8.97293 8.84866 9.15416L9.00997 9.29909H12.418H15.826L15.9769 9.13132C16.3132 8.75744 16.1403 7.03671 15.6843 6.21841C14.9757 4.94713 13.3502 4.1506 11.8999 4.36405ZM11.4316 12.4052C9.93347 12.8003 9.34392 13.7607 9.34386 15.8064L9.34379 17.0521L9.51924 17.1965C9.66924 17.3201 9.75984 17.3412 10.1445 17.342C12.1805 17.3467 13.6024 18.6601 13.7332 20.6569C13.7669 21.1694 13.7923 21.2715 13.9155 21.3894L14.0587 21.5264H16.3779H18.697L18.8517 21.3784L19.0063 21.2305L18.9895 16.8889L18.9727 12.5471L18.825 12.4328C18.6382 12.2882 11.9698 12.2633 11.4316 12.4052ZM20.256 12.4366C20.0612 12.6229 20.0618 12.6061 20.0805 17.0623L20.0981 21.2978L20.2457 21.4121C20.3852 21.52 20.5226 21.5264 22.7265 21.5264H25.0598L25.1797 21.3805C25.2711 21.2695 25.3093 21.0944 25.34 20.6458C25.4748 18.6795 26.9129 17.341 28.8909 17.341C29.1814 17.341 29.285 17.3131 29.4265 17.1968L29.6019 17.0526L29.623 16.0944C29.6705 13.9315 29.0833 12.8806 27.5789 12.436C26.9606 12.2532 20.4472 12.2538 20.256 12.4366ZM8.87486 18.4363C7.96874 18.6854 7.33123 19.3153 7.12659 20.1637C7.02417 20.5882 7.04475 25.2572 7.15073 25.6378C7.32517 26.2644 7.80224 26.817 8.43718 27.1278L8.78107 27.2962L10.4969 27.3147C12.4665 27.336 12.4779 27.3347 12.5992 27.0569C12.7093 26.805 12.7325 20.8073 12.6255 20.2639C12.3412 18.8199 10.5877 17.9654 8.87486 18.4363ZM28.3408 18.4571C26.5226 18.8921 26.3704 19.4011 26.3954 23.8684L26.4131 27.0176L26.568 27.1751L26.7228 27.3327L28.5062 27.3144L30.2897 27.2962L30.6502 27.1216C31.0998 26.9039 31.5885 26.4167 31.8093 25.966L31.9779 25.6221L31.9966 22.9968C32.0198 19.7435 31.9487 19.4355 31.0322 18.8178C30.4389 18.4178 29.1656 18.2598 28.3408 18.4571ZM14.1438 22.5842C13.986 22.5842 13.755 22.819 13.7549 22.9768C13.7545 23.3693 13.7518 24.05 13.7518 24.9919V27.0661L13.8965 27.1961L14.0412 27.3261H19.5441H25.047L25.183 27.1877C25.3173 27.0511 25.319 27.023 25.319 24.956V22.8626C25.319 22.7025 25.1891 22.5727 25.029 22.5727H24.9963L19.6398 22.5652C16.6937 22.5612 14.2205 22.5697 14.1438 22.5842Z" fill="#4DB663"/>
</svg>
