<svg width="32" height="32" viewBox="0 0 32 32" fill="none" xmlns="http://www.w3.org/2000/svg">
<path d="M14.2026 3.24452C14.3286 3.14312 14.4758 3.07051 14.6337 3.03191C14.7915 2.99331 14.9561 2.98968 15.1156 3.02129L26.1156 5.18858C26.3649 5.23767 26.5892 5.37029 26.7504 5.56389C26.9117 5.7575 26.9998 6.00014 27 6.25056V25.7497C26.9998 26.0001 26.9117 26.2428 26.7504 26.4364C26.5892 26.63 26.3649 26.7626 26.1156 26.8117L15.1156 28.979C14.9561 29.0104 14.7915 29.0066 14.6336 28.9677C14.4758 28.9289 14.3287 28.8561 14.2028 28.7545C14.077 28.653 13.9756 28.5252 13.9059 28.3803C13.8363 28.2355 13.8001 28.0773 13.8 27.917V4.08326L14.2026 3.24452ZM20.4 15.9991C20.4 15.7117 20.2841 15.436 20.0778 15.2328C19.8715 15.0296 19.5917 14.9154 19.3 14.9154C19.0083 14.9154 18.7285 15.0296 18.5222 15.2328C18.3159 15.436 18.2 15.7117 18.2 15.9991C18.2 16.2865 18.3159 16.5621 18.5222 16.7653C18.7285 16.9685 19.0083 17.0827 19.3 17.0827C19.5917 17.0827 19.8715 16.9685 20.0778 16.7653C20.2841 16.5621 20.4 16.2865 20.4 15.9991ZM11.6 5.16691H6.1C5.80826 5.16691 5.52847 5.28108 5.32218 5.4843C5.11589 5.68753 5 5.96316 5 6.25056V25.7497C5 26.0371 5.11589 26.3127 5.32218 26.516C5.52847 26.7192 5.80826 26.8334 6.1 26.8334H11.6V5.16691ZM14.2026 3.24452C14.0766 3.34624 13.9752 3.47425 13.9056 3.6193C13.836 3.76435 13.7999 3.92282 13.8 4.08326L14.2026 3.24452Z" fill="#4DB663"/>
</svg>
