<svg width="28" height="28" viewBox="0 0 28 28" fill="none" xmlns="http://www.w3.org/2000/svg">
<path fill-rule="evenodd" clip-rule="evenodd" d="M1.7324 0.761105C1.39626 0.877336 1.1636 1.04486 0.973273 1.30758C0.653179 1.74949 0.665989 1.46953 0.665989 8.01938V13.9985H4.59751H8.52904L8.52925 13.4908C8.52966 12.4296 9.37351 12.0315 9.95626 12.8175C10.1265 13.0472 10.1544 16.3373 9.98896 16.6716C9.54004 17.5781 8.52966 17.1607 8.52925 16.0685L8.52904 15.5608H4.59658H0.664062L0.67807 20.8594C0.691922 26.1222 0.692755 26.1597 0.801692 26.3951C0.961973 26.7415 1.20656 26.9938 1.54176 27.1584L1.83764 27.3037L5.18334 27.3182L8.52904 27.3327V24.0697C8.52904 20.9363 8.53305 20.8002 8.62959 20.6443C8.94427 20.1361 9.70074 20.1762 9.97407 20.7154L10.0912 20.9466V24.1382V27.3298H13.9967H17.9022V24.5985V21.8672L16.2146 21.8515L14.5269 21.8358L14.3269 21.6748C13.8052 21.2549 13.958 20.483 14.598 20.3053C14.7261 20.2697 15.3892 20.248 16.353 20.2479L17.9022 20.2476V19.0824C17.9022 17.3164 18.1813 16.85 19.0169 17.2196C19.5007 17.4337 19.464 17.0004 19.4642 22.5013L19.4644 27.3327L22.8101 27.3182L26.1558 27.3037L26.4517 27.1584C26.7869 26.9938 27.0315 26.7415 27.1917 26.3951L27.3014 26.1581L27.3151 17.7349L27.3287 9.31178H23.3966H19.4644V11.3871C19.4644 13.4579 19.4641 13.4627 19.3462 13.6393C19.0285 14.1149 18.4007 14.1028 18.0356 13.614C17.932 13.4753 17.9277 13.3974 17.913 11.3937L17.8977 9.31709L16.2113 9.30142C14.6022 9.28647 14.5183 9.2808 14.3812 9.17837C13.8925 8.81327 13.8804 8.1854 14.3559 7.86774L14.5329 7.74953H20.9318H27.3307L27.3161 4.79427L27.3014 1.83901L27.1561 1.54312C26.9915 1.20791 26.7392 0.963312 26.3928 0.803025L26.1558 0.693355L18.1235 0.679711L10.0912 0.666016V4.6394V8.61273L9.97407 8.84509C9.6949 9.39869 8.93094 9.43182 8.62017 8.90377C8.53549 8.75989 8.52904 8.4628 8.52904 4.70814V0.667318L5.26145 0.669036C2.29723 0.670546 1.96959 0.679086 1.7324 0.761105Z" fill="#4DB663"/>
</svg>
